<svg
  width="48"
  height="48"
  viewBox="0 0 48 48"
  fill="none"
  xmlns="http://www.w3.org/2000/svg"
>
  <rect width="48" height="48" rx="24" fill="#767E8B" />
  <path
    d="M34.5658 14.8425C32.6604 13.9693 30.649 13.3499 28.5828 13C28.3001 13.5059 28.0443 14.0264 27.8164 14.5594C25.6156 14.2274 23.3775 14.2274 21.1766 14.5594C20.9487 14.0265 20.6928 13.506 20.4102 13C18.3427 13.3529 16.33 13.9738 14.4227 14.847C10.6364 20.4543 9.60994 25.9224 10.1231 31.3128C12.3405 32.9526 14.8224 34.1998 17.461 35C18.0551 34.2002 18.5808 33.3517 19.0325 32.4635C18.1745 32.1427 17.3464 31.747 16.5577 31.2808C16.7653 31.1301 16.9683 30.9749 17.1644 30.8242C19.4593 31.9044 21.964 32.4645 24.4999 32.4645C27.0359 32.4645 29.5406 31.9044 31.8355 30.8242C32.0339 30.9863 32.2369 31.1416 32.4422 31.2808C31.652 31.7477 30.8223 32.1442 29.9628 32.4658C30.414 33.3535 30.9397 34.2013 31.5344 35C34.1751 34.203 36.6589 32.9564 38.8767 31.3151C39.4789 25.0639 37.848 19.6461 34.5658 14.8425ZM19.6826 27.9977C18.2524 27.9977 17.0709 26.6986 17.0709 25.1005C17.0709 23.5023 18.2114 22.1918 19.678 22.1918C21.1447 22.1918 22.3171 23.5023 22.292 25.1005C22.2669 26.6986 21.1401 27.9977 19.6826 27.9977ZM29.3173 27.9977C27.8849 27.9977 26.7079 26.6986 26.7079 25.1005C26.7079 23.5023 27.8484 22.1918 29.3173 22.1918C30.7862 22.1918 31.9495 23.5023 31.9244 25.1005C31.8993 26.6986 30.7748 27.9977 29.3173 27.9977Z"
    fill="white"
  />
</svg>
